<svg width="140" height="64" viewBox="0 0 140 64" fill="none" xmlns="http://www.w3.org/2000/svg">
<path d="M82.7222 21.2108C76.868 21.2108 72.1168 25.962 72.1168 31.8162C72.1168 37.6704 76.868 42.4217 82.7222 42.4217C88.5764 42.4217 93.3277 37.6704 93.3277 31.8162C93.3277 25.962 88.5764 21.2108 82.7222 21.2108ZM82.7222 38.9007C78.8194 38.9007 75.6378 35.719 75.6378 31.8162C75.6378 27.9134 78.8194 24.7318 82.7222 24.7318C86.625 24.7318 89.8067 27.9134 89.8067 31.8162C89.8067 35.719 86.625 38.9007 82.7222 38.9007Z" fill="#141414"></path>
<path d="M57.2692 21.2108C51.415 21.2108 46.6638 25.962 46.6638 31.8162C46.6638 37.6704 51.415 42.4217 57.2692 42.4217C63.1234 42.4217 67.8747 37.6704 67.8747 31.8162C67.8747 25.962 63.1234 21.2108 57.2692 21.2108Z" fill="#64D8AE"></path>
<path d="M31.8162 21.2108C25.962 21.2108 21.2108 25.962 21.2108 31.8162V41.149C21.2108 41.6156 21.5926 41.9974 22.0592 41.9974H23.8834C24.35 41.9974 24.7318 41.6156 24.7318 41.149V31.8162C24.7318 27.9134 27.9134 24.7318 31.8162 24.7318C35.719 24.7318 38.9007 27.9134 38.9007 31.8162V41.149C38.9007 41.6156 39.2824 41.9974 39.7491 41.9974H41.5732C42.0399 41.9974 42.4217 41.6156 42.4217 41.149V31.8162C42.4217 25.962 37.6704 21.2108 31.8162 21.2108Z" fill="#141414"></path>
<path d="M108.175 21.2108C102.321 21.2108 97.5698 25.962 97.5698 31.8162V41.149C97.5698 41.6156 97.9516 41.9974 98.4183 41.9974H100.242C100.709 41.9974 101.091 41.6156 101.091 41.149V31.8162C101.091 27.9134 104.272 24.7318 108.175 24.7318C112.078 24.7318 115.26 27.9134 115.26 31.8162V41.149C115.26 41.6156 115.641 41.9974 116.108 41.9974H117.932C118.399 41.9974 118.781 41.6156 118.781 41.149V31.8162C118.781 25.962 114.029 21.2108 108.175 21.2108Z" fill="#141414"></path>
<path d="M57.0995 36.9068C60.3236 40.046 65.6263 40.046 68.8503 36.9068C69.3594 36.3978 68.511 35.7614 68.0868 36.2281C65.2869 38.9855 60.7478 38.9855 57.9056 36.2281C57.4389 35.7614 56.5905 36.3978 57.0995 36.9068Z" fill="#151515"></path>
</svg>